<?xml version="1.0" encoding="utf-8"?>
<!-- Generator: Adobe Illustrator 24.3.0, SVG Export Plug-In . SVG Version: 6.00 Build 0)  -->
<svg version="1.1" id="Layer_1" xmlns="http://www.w3.org/2000/svg" xmlns:xlink="http://www.w3.org/1999/xlink" x="0px" y="0px"
	 viewBox="0 0 42 42" style="enable-background:new 0 0 42 42;" xml:space="preserve">
<style type="text/css">
	.st0{fill:#FFFFFF;}
	.st1{fill:none;stroke:#74C9B4;stroke-width:0.75;stroke-miterlimit:10;}
</style>
<g>
	<g>
		<path class="st0" d="M6.19,22.86c9.11,0,18.21,0,27.32,0c1.3,0,2.59,0,3.89,0c2.41,0,2.42-3.75,0-3.75c-9.11,0-18.21,0-27.32,0
			c-1.3,0-2.59,0-3.89,0C3.77,19.11,3.77,22.86,6.19,22.86L6.19,22.86z"/>
	</g>
</g>
<path class="st1" d="M38.39,20.98"/>
<path class="st1" d="M38.39,20.98"/>
<g>
	<g>
		<path class="st0" d="M27.36,13.51c2.63,2.34,5.27,4.68,7.9,7.03c0.32,0.29,0.7,0.77,1.09,0.97c-0.2-0.1,0.44-1.46-0.07-1.17
			c-0.2,0.11-0.38,0.34-0.55,0.49c-1.53,1.35-3.05,2.71-4.58,4.06c-1.23,1.09-2.45,2.18-3.68,3.27c-1.81,1.61,0.85,4.25,2.65,2.65
			c2.75-2.44,5.51-4.89,8.26-7.33c0.58-0.52,1.11-0.97,1.35-1.77c0.39-1.25-0.19-2.37-1.1-3.18c-1.52-1.36-3.05-2.71-4.57-4.07
			c-1.35-1.2-2.7-2.4-4.06-3.61C28.22,9.26,25.55,11.9,27.36,13.51L27.36,13.51z"/>
	</g>
</g>
</svg>
