<?xml version="1.0" encoding="UTF-8" standalone="no"?>
<svg
   xmlns:dc="http://purl.org/dc/elements/1.1/"
   xmlns:cc="http://creativecommons.org/ns#"
   xmlns:rdf="http://www.w3.org/1999/02/22-rdf-syntax-ns#"
   xmlns:svg="http://www.w3.org/2000/svg"
   xmlns="http://www.w3.org/2000/svg"
   xmlns:sodipodi="http://sodipodi.sourceforge.net/DTD/sodipodi-0.dtd"
   xmlns:inkscape="http://www.inkscape.org/namespaces/inkscape"
   inkscape:version="1.0rc1 (09960d6f05, 2020-04-09)"
   height="124.4"
   width="654.46002"
   sodipodi:docname="CA_fieldobs_logo_white_with_spaces.svg"
   version="1.1"
   viewBox="0 0 654.46001 124.4"
   data-name="Layer 1"
   id="Layer_1">
  <metadata
     id="metadata65">
    <rdf:RDF>
      <cc:Work
         rdf:about="">
        <dc:format>image/svg+xml</dc:format>
        <dc:type
           rdf:resource="http://purl.org/dc/dcmitype/StillImage" />
        <dc:title></dc:title>
      </cc:Work>
    </rdf:RDF>
  </metadata>
  <sodipodi:namedview
     inkscape:current-layer="Layer_1"
     inkscape:window-maximized="1"
     inkscape:window-y="-8"
     inkscape:window-x="-8"
     inkscape:cy="62.200001"
     inkscape:cx="316.22501"
     inkscape:zoom="0.91976143"
     fit-margin-bottom="0"
     fit-margin-right="0"
     fit-margin-left="0"
     fit-margin-top="0"
     showgrid="false"
     id="namedview63"
     inkscape:window-height="801"
     inkscape:window-width="1536"
     inkscape:pageshadow="2"
     inkscape:pageopacity="0"
     guidetolerance="10"
     gridtolerance="10"
     objecttolerance="10"
     borderopacity="1"
     bordercolor="#666666"
     pagecolor="#ffffff" />
  <defs
     id="defs4">
    <style
       id="style2">.cls-1{fill:#fff;}</style>
  </defs>
  <path
     inkscape:connector-curvature="0"
     id="path6"
     d="M 26.079997,64.76 C 8.19,64.76 0.53,55 0.53,32.25 0.53,9.2 9.39,0 25.3,0 c 4.559997,0 8.599997,0.69 15.999997,2.92 l -2,7.83 c -5.92,-2.24 -10.04,-3.18 -13.569997,-3.18 -9.89,0 -16.17,4.13 -16.17,24.68 0,21.41 6.63,24.94 16.769997,24.94 3.1,0 7,-0.86 14.36,-4 l 1.9,7.74 c -7.83,3.14 -12.39,3.83 -16.51,3.83 z"
     class="cls-1" />
  <path
     inkscape:connector-curvature="0"
     id="path8"
     d="m 92.119997,63.9 -5.5,-18.32 h -21.62 l -5.64,18.32 h -8.69 l 19.61,-63.04 h 11.44 l 19.350003,63 z m -7.22,-25.2 -7.66,-25.11 a 25.44,25.44 0 0 1 -1,-5.94 h -0.69 a 26.12,26.12 0 0 1 -1.11,5.94 l -7.69,25.11 z"
     class="cls-1" />
  <path
     inkscape:connector-curvature="0"
     id="path10"
     d="m 154.64,63.9 a 25.93,25.93 0 0 1 -3.61,0.34 c -4.56,0 -6.79,-1.55 -9.37,-6.62 L 131.85,38.27 H 120.76 V 63.9 h -8.43 V 0.86 h 19.78 c 12,0 19.7,5.25 19.7,18.06 0,9 -4.3,14.7 -11.87,17.29 l 9,17.19 c 1.29,2.41 1.89,2.93 3.95,2.93 a 9.37,9.37 0 0 0 1.72,-0.17 z m -23,-56.16 h -10.88 v 23.82 h 10.32 c 7.74,0 12,-4.21 12,-12.3 C 143.12,12 139.85,7.74 131.68,7.74 Z"
     class="cls-1" />
  <path
     inkscape:connector-curvature="0"
     id="path12"
     d="M 188,63.9 H 167.46 V 0.86 h 18.14 c 12.73,0 20.21,4.21 20.21,16.08 0,6.88 -2.92,12.39 -9.63,14.36 v 0.61 c 7.65,1.54 11.82,6.7 11.82,14.79 0,12.3 -7.86,17.2 -20,17.2 z M 185.6,7.65 h -9.8 V 29 h 11.09 c 6.54,0 10.41,-3.18 10.41,-11 0,-7.08 -3.87,-10.35 -11.7,-10.35 z m 1.64,27.61 H 175.8 V 57.1 h 11.35 c 8.69,0 12.13,-3.44 12.13,-11 0,-8 -4.9,-10.84 -12.04,-10.84 z"
     class="cls-1" />
  <path
     inkscape:connector-curvature="0"
     id="path14"
     d="m 243.57,64.76 c -15.48,0 -24.94,-8.86 -24.94,-32.17 0,-23.31 9.8,-32.59 24.94,-32.59 15.39,0 25,8.94 25,32.42 0.02,22.79 -9.27,32.34 -25,32.34 z m 0,-57.54 c -10.24,0 -15.91,5.08 -15.91,25.2 0,20.38 6.19,25.11 15.91,25.11 9.72,0 16,-4.38 16,-25.11 -0.01,-20.12 -5.94,-25.2 -16,-25.2 z"
     class="cls-1" />
  <path
     inkscape:connector-curvature="0"
     id="path16"
     d="M 317.61,63.9 293,19.61 a 38.43,38.43 0 0 1 -2.93,-6.88 h -0.51 c 0.17,2.23 0.34,4.47 0.34,6.88 V 63.9 h -8 V 0.86 h 9.55 l 24.08,43.26 a 39,39 0 0 1 2.92,6.62 H 319 c -0.17,-2.24 -0.26,-4.56 -0.26,-6.62 V 0.86 h 7.83 v 63 z"
     class="cls-1" />
  <path
     inkscape:connector-curvature="0"
     id="path18"
     d="m 403,63.9 -5.5,-18.32 h -21.68 l -5.59,18.32 h -8.69 l 19.61,-63 h 11.44 l 19.35,63 z m -7.22,-25.2 -7.66,-25.11 a 25.44,25.44 0 0 1 -1,-5.94 h -0.69 a 26.12,26.12 0 0 1 -1.11,5.94 l -7.7,25.11 z"
     class="cls-1" />
  <path
     inkscape:connector-curvature="0"
     id="path20"
     d="m 445.39,64.76 c -17.89,0 -25.54,-9.81 -25.54,-32.51 0,-23 8.86,-32.25 24.77,-32.25 4.55,0 8.6,0.69 16,2.92 l -2,7.83 c -5.93,-2.24 -10.06,-3.18 -13.58,-3.18 -9.89,0 -16.17,4.13 -16.17,24.68 0,21.41 6.62,24.94 16.77,24.94 3.09,0 7,-0.86 14.36,-4 l 1.89,7.74 c -7.81,3.14 -12.37,3.83 -16.5,3.83 z"
     class="cls-1" />
  <path
     inkscape:connector-curvature="0"
     id="path22"
     d="M 494.15,8.17 V 63.9 h -8.68 V 8.17 H 469.64 V 0.86 h 40.42 v 7.31 z"
     class="cls-1" />
  <path
     inkscape:connector-curvature="0"
     id="path24"
     d="M 522.62,63.9 V 0.86 h 8.68 v 63 z"
     class="cls-1" />
  <path
     inkscape:connector-curvature="0"
     id="path26"
     d="m 571.46,64.76 c -15.48,0 -24.94,-8.86 -24.94,-32.17 0,-23.31 9.81,-32.59 24.94,-32.59 15.4,0 25,8.94 25,32.42 0.03,22.79 -9.26,32.34 -25,32.34 z m 0,-57.54 c -10.23,0 -15.91,5.08 -15.91,25.2 0,20.38 6.2,25.11 15.91,25.11 9.71,0 16,-4.38 16,-25.11 0,-20.12 -5.93,-25.2 -16,-25.2 z"
     class="cls-1" />
  <path
     inkscape:connector-curvature="0"
     id="path28"
     d="M 645.51,63.9 620.91,19.61 A 38.35,38.35 0 0 1 618,12.73 h -0.52 c 0.18,2.23 0.35,4.47 0.35,6.88 V 63.9 h -8 V 0.86 h 9.55 l 24.07,43.26 a 39,39 0 0 1 2.93,6.62 h 0.52 c -0.18,-2.24 -0.26,-4.56 -0.26,-6.62 V 0.86 h 7.82 v 63 z"
     class="cls-1" />
  <path
     inkscape:connector-curvature="0"
     id="path30"
     d="m 5,108 v 15.9 H 0 V 87.24 h 20.55 v 4.25 H 5 v 12.26 H 19.8 V 108 Z"
     class="cls-1" />
  <path
     inkscape:connector-curvature="0"
     id="path32"
     d="M 28.749997,123.9 V 87.24 h 5 v 36.66 z"
     class="cls-1" />
  <path
     inkscape:connector-curvature="0"
     id="path34"
     d="M 44.599997,123.9 V 87.24 h 20.7 v 4.25 h -15.7 v 11.8 h 14.95 v 4.21 h -14.95 v 12.15 h 15.8 l 0.4,4.25 z"
     class="cls-1" />
  <path
     inkscape:connector-curvature="0"
     id="path36"
     d="M 74.349997,123.9 V 87.24 h 5.05 v 32.31 h 14.95 l 0.5,4.35 z"
     class="cls-1" />
  <path
     inkscape:connector-curvature="0"
     id="path38"
     d="M 112.05,123.9 H 101 V 87.24 h 11 c 9.2,0 16,4 16,17.66 0,13.2 -5.95,19 -15.95,19 z m 0.1,-32.51 H 106 v 28.36 h 6 c 7,0 10.65,-3.1 10.65,-14.75 0,-11.31 -4.3,-13.61 -10.5,-13.61 z"
     class="cls-1" />
  <path
     inkscape:connector-curvature="0"
     id="path40"
     d="m 167.3,124.4 c -9,0 -14.5,-5.15 -14.5,-18.7 0,-13.55 5.7,-19 14.5,-19 8.8,0 14.55,5.2 14.55,18.86 0,13.29 -5.4,18.84 -14.55,18.84 z m 0,-33.46 c -6,0 -9.25,3 -9.25,14.66 0,11.66 3.6,14.6 9.25,14.6 5.65,0 9.3,-2.55 9.3,-14.6 0,-11.71 -3.45,-14.66 -9.3,-14.66 z"
     class="cls-1" />
  <path
     inkscape:connector-curvature="0"
     id="path42"
     d="M 201.6,123.9 H 189.65 V 87.24 h 10.55 c 7.4,0 11.75,2.45 11.75,9.35 0,4 -1.7,7.2 -5.6,8.36 v 0.34 c 4.45,0.91 6.85,3.91 6.85,8.61 0,7.15 -4.55,10 -11.6,10 z m -1.4,-32.71 h -5.7 v 12.41 h 6.5 c 3.8,0 6.05,-1.85 6.05,-6.4 -0.05,-4.11 -2.3,-6.01 -6.85,-6.01 z m 1,16.06 h -6.7 V 120 h 6.6 c 5.05,0 7.05,-2 7.05,-6.4 0,-4.7 -2.85,-6.35 -7,-6.35 z"
     class="cls-1" />
  <path
     inkscape:connector-curvature="0"
     id="path44"
     d="m 230.3,124.4 c -3,0 -5.45,-0.25 -10.85,-2 l 1.25,-4.4 c 6.2,1.8 7.65,2 10.1,2 4.1,0 6.25,-2.1 6.25,-5.8 0,-2.85 -1.35,-4.25 -4.5,-5.5 l -5.85,-2.35 c -5,-2 -7.45,-4.75 -7.45,-9.26 0,-6.4 4.8,-10.4 11.95,-10.4 a 37.27,37.27 0 0 1 9.15,1.31 l -1,4.4 a 34.87,34.87 0 0 0 -8.5,-1.3 c -4,0 -6.5,1.8 -6.5,5.8 0,2.56 1.2,3.9 4.5,5.15 l 5.85,2.25 c 4.75,1.86 7.4,4.61 7.4,9.66 -0.05,7.04 -5.1,10.44 -11.8,10.44 z"
     class="cls-1" />
  <path
     inkscape:connector-curvature="0"
     id="path46"
     d="M 250.45,123.9 V 87.24 h 20.7 v 4.25 h -15.7 v 11.8 h 15 v 4.21 h -15 v 12.15 h 15.8 l 0.4,4.25 z"
     class="cls-1" />
  <path
     inkscape:connector-curvature="0"
     id="path48"
     d="m 304.8,123.9 a 14.92,14.92 0 0 1 -2.1,0.2 c -2.65,0 -3.95,-0.9 -5.45,-3.85 L 291.55,109 h -6.45 v 14.9 h -4.9 V 87.24 h 11.5 c 6.95,0 11.45,3.05 11.45,10.51 0,5.25 -2.5,8.54 -6.9,10 l 5.25,10 c 0.75,1.4 1.1,1.7 2.3,1.7 a 5.16,5.16 0 0 0 1,-0.1 z M 291.45,91.24 h -6.35 v 13.86 h 6 c 4.5,0 7,-2.45 7,-7.15 0,-4.2 -1.9,-6.71 -6.65,-6.71 z"
     class="cls-1" />
  <path
     inkscape:connector-curvature="0"
     id="path50"
     d="m 325.85,123.9 h -6 L 308.39,87.24 h 5.2 l 8.56,28.06 a 16.9,16.9 0 0 1 0.6,3.8 h 0.35 a 16.9,16.9 0 0 1 0.6,-3.8 l 8.55,-28.06 h 5.05 z"
     class="cls-1" />
  <path
     inkscape:connector-curvature="0"
     id="path52"
     d="m 363.05,123.9 -3.2,-10.65 h -12.6 L 344,123.9 h -5.06 L 350.35,87.24 H 357 l 11.25,36.66 z m -4.2,-14.65 -4.45,-14.61 a 14.71,14.71 0 0 1 -0.6,-3.45 h -0.4 a 15.13,15.13 0 0 1 -0.65,3.45 l -4.45,14.61 z"
     class="cls-1" />
  <path
     inkscape:connector-curvature="0"
     id="path54"
     d="M 384.05,91.49 V 123.9 H 379 V 91.49 h -9.21 v -4.25 h 23.51 v 4.25 z"
     class="cls-1" />
  <path
     inkscape:connector-curvature="0"
     id="path56"
     d="m 412.15,124.4 c -9,0 -14.51,-5.15 -14.51,-18.7 0,-13.55 5.7,-19 14.51,-19 8.81,0 14.55,5.2 14.55,18.86 0,13.29 -5.4,18.84 -14.55,18.84 z m 0,-33.46 c -6,0 -9.26,3 -9.26,14.66 0,11.66 3.6,14.6 9.26,14.6 5.66,0 9.3,-2.55 9.3,-14.6 0,-11.71 -3.45,-14.66 -9.3,-14.66 z"
     class="cls-1" />
  <path
     inkscape:connector-curvature="0"
     id="path58"
     d="m 459.1,123.9 a 14.92,14.92 0 0 1 -2.1,0.2 c -2.66,0 -4,-0.9 -5.46,-3.85 L 445.84,109 h -6.45 v 14.9 h -4.9 V 87.24 H 446 c 6.95,0 11.45,3.05 11.45,10.51 0,5.25 -2.5,8.54 -6.9,10 l 5.25,10 c 0.75,1.4 1.11,1.7 2.31,1.7 a 5.16,5.16 0 0 0 1,-0.1 z M 445.74,91.24 h -6.35 v 13.86 h 6 c 4.5,0 7,-2.45 7,-7.15 0,-4.2 -1.9,-6.71 -6.65,-6.71 z"
     class="cls-1" />
  <path
     inkscape:connector-curvature="0"
     id="path60"
     d="m 478.09,109.35 v 14.55 h -5 V 109.3 L 462.74,87.24 H 468 l 6.55,14 a 11.59,11.59 0 0 1 1,3.35 h 0.3 a 13.75,13.75 0 0 1 1.05,-3.35 l 6.4,-14 h 5.15 z"
     class="cls-1" />
</svg>
