<?xml version="1.0" encoding="utf-8"?>
<!-- Generator: Adobe Illustrator 24.3.0, SVG Export Plug-In . SVG Version: 6.00 Build 0)  -->
<svg version="1.1" id="Layer_1" xmlns="http://www.w3.org/2000/svg" xmlns:xlink="http://www.w3.org/1999/xlink" x="0px" y="0px"
	 viewBox="0 0 10 10" width="12px" height="12px" style="enable-background:new 0 0 10 10;" xml:space="preserve">
<style type="text/css">
	.st0{fill:none;stroke:#74C9B4;stroke-width:0.75;stroke-miterlimit:10;}
	.st1{fill:none;stroke:#76C9B4;stroke-linecap:round;}
</style>
<g>
	<g>
		<path class="st0" d="M7.8,6v1.2c0,0.1-0.1,0.1-0.1,0.1H2.8c-0.1,0-0.1-0.1-0.1-0.1V2.3c0-0.1,0.1-0.1,0.1-0.1H4"/>
		<path class="st0" d="M9.2,4v1.8c0,0.1-0.1,0.1-0.1,0.1H4.2C4.1,5.9,4,5.9,4,5.8V0.9c0-0.1,0.1-0.1,0.1-0.1H6"/>
	</g>
	<line class="st1" x1="7.4" y1="0.6" x2="9.3" y2="0.6"/>
	<line class="st1" x1="9.3" y1="2.6" x2="9.3" y2="0.7"/>
	<line class="st1" x1="6.1" y1="3.9" x2="9.3" y2="0.7"/>
</g>
</svg>
