<?xml version="1.0" encoding="utf-8"?>
<!-- Generator: Adobe Illustrator 24.3.0, SVG Export Plug-In . SVG Version: 6.00 Build 0)  -->
<svg version="1.1" id="Layer_1" xmlns="http://www.w3.org/2000/svg" xmlns:xlink="http://www.w3.org/1999/xlink" x="0px" y="0px"
	 viewBox="0 0 562 116" style="enable-background:new 0 0 562 116;" xml:space="preserve">
	<style type="text/css">
		.st0{fill:#129BC7;}
		.st1{enable-background:new    ;}
		.st2{fill:#FFFFFF;}
		.st3{fill:none;stroke:#FFFFFF;stroke-width:4;stroke-linecap:round;}
		.st4{fill:none;stroke:#FFFFFF;stroke-width:4;stroke-linecap:round;stroke-linejoin:round;}
	</style>
<path id="Rectangle_6" class="st0" d="M57.6-0.2h446c32,0,58,26,58,58l0,0c0,32-26,58-58,58h-446c-32,0-58-26-58-58l0,0
	C-0.4,25.8,25.6-0.2,57.6-0.2z"/>
<g class="st1">
	<path class="st2" d="M63.3,28.6h6.3c1.4,0,2.5,0.1,3.3,0.3c1,0.3,1.9,0.8,2.6,1.6s1.3,1.7,1.6,2.8s0.6,2.5,0.6,4.1
		c0,1.4-0.2,2.6-0.5,3.7c-0.4,1.2-1,2.3-1.8,3c-0.6,0.6-1.4,1-2.4,1.4c-0.8,0.2-1.8,0.4-3.1,0.4h-6.5V28.6z M66.8,31.5v11.4h2.6
		c1,0,1.7-0.1,2.1-0.2c0.6-0.1,1-0.4,1.4-0.7s0.7-0.9,0.9-1.7s0.4-1.8,0.4-3.1s-0.1-2.3-0.4-3.1s-0.6-1.3-1-1.7s-1-0.7-1.6-0.8
		c-0.5-0.1-1.4-0.2-2.8-0.2H66.8z"/>
	<path class="st2" d="M96.1,45.8h-3.8l-1.5-3.9H84l-1.4,3.9h-3.7l6.7-17.2h3.7L96.1,45.8z M89.7,39l-2.4-6.4L85,39H89.7z"/>
	<path class="st2" d="M100,45.8V31.5h-5.1v-2.9h13.7v2.9h-5.1v14.3H100z"/>
	<path class="st2" d="M124.5,45.8h-3.8l-1.5-3.9h-6.9l-1.4,3.9h-3.7l6.7-17.2h3.7L124.5,45.8z M118.2,39l-2.4-6.4l-2.3,6.4H118.2z"
		/>
	<path class="st2" d="M132.2,45.8V28.6h12.7v2.9h-9.3v3.8h8.6v2.9h-8.6v4.7h9.6v2.9H132.2z"/>
	<path class="st2" d="M148.2,45.8V28.6h3.4l7,11.5V28.6h3.2v17.2h-3.5l-6.9-11.2v11.2H148.2z"/>
	<path class="st2" d="M181,45.8h-3.8l-1.5-3.9h-6.9l-1.4,3.9h-3.7l6.7-17.2h3.7L181,45.8z M174.6,39l-2.4-6.4l-2.3,6.4H174.6z"/>
	<path class="st2" d="M182.8,28.6h6.9c1.4,0,2.4,0.1,3,0.2s1.3,0.3,1.8,0.7s1,0.8,1.3,1.4s0.5,1.3,0.5,2c0,0.8-0.2,1.5-0.7,2.2
		s-1,1.2-1.8,1.5c1,0.3,1.9,0.8,2.4,1.6s0.8,1.6,0.8,2.6c0,0.8-0.2,1.5-0.5,2.3s-0.9,1.3-1.5,1.8s-1.4,0.7-2.3,0.8
		c-0.6,0.1-2,0.1-4.2,0.1h-5.8V28.6z M186.3,31.5v4h2.3c1.4,0,2.2,0,2.5-0.1c0.6-0.1,1.1-0.3,1.4-0.6s0.5-0.8,0.5-1.3
		c0-0.5-0.1-1-0.4-1.3s-0.7-0.5-1.3-0.6c-0.3,0-1.3-0.1-3-0.1H186.3z M186.3,38.3v4.6h3.2c1.2,0,2,0,2.4-0.1
		c0.5-0.1,0.9-0.3,1.3-0.7s0.5-0.8,0.5-1.5c0-0.5-0.1-1-0.4-1.3s-0.6-0.6-1.1-0.8s-1.5-0.2-3.1-0.2H186.3z"/>
	<path class="st2" d="M200.3,45.8v-17h3.5v14.1h8.6v2.9H200.3z"/>
	<path class="st2" d="M214.8,45.8V28.6h12.7v2.9h-9.3v3.8h8.6v2.9h-8.6v4.7h9.6v2.9H214.8z"/>
	<path class="st2" d="M230.8,28.6h6.3c1.4,0,2.5,0.1,3.3,0.3c1,0.3,1.9,0.8,2.6,1.6s1.3,1.7,1.6,2.8s0.6,2.5,0.6,4.1
		c0,1.4-0.2,2.6-0.5,3.7c-0.4,1.2-1,2.3-1.8,3c-0.6,0.6-1.4,1-2.4,1.4c-0.8,0.2-1.8,0.4-3.1,0.4h-6.5V28.6z M234.3,31.5v11.4h2.6
		c1,0,1.7-0.1,2.1-0.2c0.6-0.1,1-0.4,1.4-0.7s0.7-0.9,0.9-1.7s0.4-1.8,0.4-3.1s-0.1-2.3-0.4-3.1s-0.6-1.3-1-1.7s-1-0.7-1.6-0.8
		c-0.5-0.1-1.4-0.2-2.8-0.2H234.3z"/>
	<path class="st2" d="M265.8,39.5l3.4,1.1c-0.5,1.9-1.4,3.3-2.6,4.2s-2.7,1.4-4.6,1.4c-2.3,0-4.2-0.8-5.6-2.3s-2.2-3.7-2.2-6.4
		c0-2.9,0.7-5.1,2.2-6.7s3.4-2.4,5.8-2.4c2.1,0,3.8,0.6,5.1,1.9c0.8,0.7,1.4,1.8,1.8,3.2l-3.4,0.8c-0.2-0.9-0.6-1.6-1.3-2.1
		s-1.4-0.8-2.3-0.8c-1.3,0-2.3,0.5-3.1,1.4s-1.2,2.4-1.2,4.4c0,2.2,0.4,3.7,1.2,4.6s1.8,1.4,3,1.4c0.9,0,1.7-0.3,2.4-0.9
		S265.5,40.7,265.8,39.5z"/>
	<path class="st2" d="M287.7,45.8h-3.8l-1.5-3.9h-6.9l-1.4,3.9h-3.7l6.7-17.2h3.7L287.7,45.8z M281.3,39l-2.4-6.4l-2.3,6.4H281.3z"
		/>
	<path class="st2" d="M289.5,45.8V28.6h7.3c1.8,0,3.2,0.2,4,0.5s1.5,0.9,2,1.6s0.8,1.7,0.8,2.7c0,1.3-0.4,2.4-1.1,3.2
		s-1.9,1.4-3.4,1.6c0.8,0.4,1.4,0.9,1.9,1.4s1.1,1.5,2,2.8l2.1,3.4h-4.1l-2.5-3.7c-0.9-1.3-1.5-2.2-1.8-2.5s-0.7-0.6-1-0.7
		s-0.9-0.2-1.7-0.2H293v7.2H289.5z M293,35.9h2.6c1.7,0,2.7-0.1,3.1-0.2s0.7-0.4,1-0.7s0.4-0.8,0.4-1.3c0-0.6-0.2-1-0.5-1.4
		s-0.7-0.6-1.3-0.7c-0.3,0-1.1-0.1-2.5-0.1H293V35.9z"/>
	<path class="st2" d="M306.8,28.6h6.9c1.4,0,2.4,0.1,3,0.2s1.3,0.3,1.8,0.7s1,0.8,1.3,1.4s0.5,1.3,0.5,2c0,0.8-0.2,1.5-0.7,2.2
		s-1,1.2-1.8,1.5c1,0.3,1.9,0.8,2.4,1.6s0.8,1.6,0.8,2.6c0,0.8-0.2,1.5-0.5,2.3s-0.9,1.3-1.5,1.8s-1.4,0.7-2.3,0.8
		c-0.6,0.1-2,0.1-4.2,0.1h-5.8V28.6z M310.3,31.5v4h2.3c1.4,0,2.2,0,2.5-0.1c0.6-0.1,1.1-0.3,1.4-0.6s0.5-0.8,0.5-1.3
		c0-0.5-0.1-1-0.4-1.3s-0.7-0.5-1.3-0.6c-0.3,0-1.3-0.1-3-0.1H310.3z M310.3,38.3v4.6h3.2c1.2,0,2,0,2.4-0.1
		c0.5-0.1,0.9-0.3,1.3-0.7s0.5-0.8,0.5-1.5c0-0.5-0.1-1-0.4-1.3s-0.6-0.6-1.1-0.8s-1.5-0.2-3.1-0.2H310.3z"/>
	<path class="st2" d="M323.5,37.3c0-1.8,0.3-3.2,0.8-4.4c0.4-0.9,0.9-1.7,1.6-2.4s1.4-1.2,2.2-1.5c1.1-0.5,2.3-0.7,3.7-0.7
		c2.5,0,4.6,0.8,6.1,2.4s2.3,3.8,2.3,6.6c0,2.8-0.8,4.9-2.3,6.5s-3.5,2.3-6,2.3c-2.6,0-4.6-0.8-6.1-2.3S323.5,40,323.5,37.3z
		 M327,37.2c0,1.9,0.4,3.4,1.3,4.4s2,1.5,3.4,1.5s2.5-0.5,3.4-1.5s1.3-2.5,1.3-4.5c0-2-0.4-3.4-1.3-4.4s-2-1.5-3.4-1.5
		s-2.6,0.5-3.5,1.5S327,35.2,327,37.2z"/>
	<path class="st2" d="M342.9,45.8V28.6h3.4l7,11.5V28.6h3.2v17.2H353l-6.9-11.2v11.2H342.9z"/>
	<path class="st2" d="M366.9,45.8V28.6h11.8v2.9h-8.3v4.1h7.2v2.9h-7.2v7.3H366.9z"/>
	<path class="st2" d="M395.7,45.8h-3.8l-1.5-3.9h-6.9l-1.4,3.9h-3.7l6.7-17.2h3.7L395.7,45.8z M389.3,39l-2.4-6.4l-2.3,6.4H389.3z"
		/>
	<path class="st2" d="M397.5,45.8V28.6h7.3c1.8,0,3.2,0.2,4,0.5s1.5,0.9,2,1.6s0.8,1.7,0.8,2.7c0,1.3-0.4,2.4-1.1,3.2
		s-1.9,1.4-3.4,1.6c0.8,0.4,1.4,0.9,1.9,1.4s1.1,1.5,2,2.8l2.1,3.4h-4.1l-2.5-3.7c-0.9-1.3-1.5-2.2-1.8-2.5s-0.7-0.6-1-0.7
		s-0.9-0.2-1.7-0.2H401v7.2H397.5z M401,35.9h2.6c1.7,0,2.7-0.1,3.1-0.2s0.7-0.4,1-0.7s0.4-0.8,0.4-1.3c0-0.6-0.2-1-0.5-1.4
		s-0.7-0.6-1.3-0.7c-0.3,0-1.1-0.1-2.5-0.1H401V35.9z"/>
	<path class="st2" d="M414.8,45.8V28.6h5.2l3.1,11.7l3.1-11.7h5.2v17.2h-3.2V32.3l-3.4,13.5h-3.3L418,32.3v13.5H414.8z"/>
	<path class="st2" d="M434.7,45.8V28.6h3.5v17.2H434.7z"/>
	<path class="st2" d="M441.5,45.8V28.6h3.4l7,11.5V28.6h3.2v17.2h-3.5l-6.9-11.2v11.2H441.5z"/>
	<path class="st2" d="M466.8,39.5v-2.9h7.5v6.8c-0.7,0.7-1.8,1.3-3.2,1.9s-2.8,0.8-4.2,0.8c-1.8,0-3.4-0.4-4.7-1.1s-2.3-1.8-3-3.2
		s-1-2.9-1-4.6c0-1.8,0.4-3.4,1.1-4.8s1.8-2.5,3.3-3.2c1.1-0.6,2.5-0.9,4.1-0.9c2.1,0,3.8,0.4,5,1.3s2,2.1,2.3,3.7l-3.4,0.6
		c-0.2-0.8-0.7-1.5-1.4-2s-1.5-0.7-2.5-0.7c-1.5,0-2.7,0.5-3.6,1.4s-1.3,2.4-1.3,4.3c0,2,0.5,3.6,1.4,4.6s2.1,1.5,3.6,1.5
		c0.7,0,1.5-0.1,2.2-0.4s1.4-0.6,1.9-1v-2.2H466.8z"/>
</g>
<g class="st1">
	<path class="st2" d="M145.3,76.2l3.4-0.3c0.2,1.1,0.6,2,1.2,2.5s1.5,0.8,2.5,0.8c1.1,0,2-0.2,2.5-0.7s0.8-1,0.8-1.7
		c0-0.4-0.1-0.8-0.4-1s-0.7-0.5-1.2-0.7c-0.4-0.1-1.3-0.4-2.8-0.8c-1.9-0.5-3.2-1-3.9-1.7c-1.1-0.9-1.6-2.1-1.6-3.5
		c0-0.9,0.2-1.7,0.7-2.5s1.2-1.3,2.1-1.7s2.1-0.6,3.4-0.6c2.2,0,3.8,0.5,4.9,1.4s1.7,2.2,1.7,3.8l-3.5,0.2c-0.1-0.9-0.5-1.5-1-1.9
		s-1.2-0.6-2.2-0.6c-1,0-1.8,0.2-2.4,0.6c-0.4,0.3-0.6,0.6-0.6,1.1c0,0.4,0.2,0.8,0.5,1c0.4,0.4,1.5,0.8,3.2,1.1s2.9,0.8,3.7,1.2
		s1.4,1,1.9,1.7s0.7,1.7,0.7,2.7c0,1-0.3,1.9-0.8,2.8s-1.3,1.5-2.3,1.9s-2.2,0.6-3.7,0.6c-2.2,0-3.8-0.5-5-1.5
		S145.5,78.1,145.3,76.2z"/>
	<path class="st2" d="M162.2,81.8V64.6h12.7v2.9h-9.3v3.8h8.6v2.9h-8.6v4.7h9.6v2.9H162.2z"/>
	<path class="st2" d="M178.2,81.8V64.6h12.7v2.9h-9.3v3.8h8.6v2.9h-8.6v4.7h9.6v2.9H178.2z"/>
	<path class="st2" d="M204.7,81.8V67.5h-5.1v-2.9h13.7v2.9h-5.1v14.3H204.7z"/>
	<path class="st2" d="M215.5,81.8V64.6h3.5v6.8h6.8v-6.8h3.5v17.2h-3.5v-7.5H219v7.5H215.5z"/>
	<path class="st2" d="M232.9,81.8V64.6h12.7v2.9h-9.3v3.8h8.6v2.9h-8.6v4.7h9.6v2.9H232.9z"/>
	<path class="st2" d="M255.6,81.8V64.6h11.8v2.9H259v4.1h7.2v2.9H259v7.3H255.6z"/>
	<path class="st2" d="M270.1,81.8V64.6h3.5v17.2H270.1z"/>
	<path class="st2" d="M276.9,81.8V64.6h12.7v2.9h-9.3v3.8h8.6v2.9h-8.6v4.7h9.6v2.9H276.9z"/>
	<path class="st2" d="M293,81.8v-17h3.5v14.1h8.6v2.9H293z"/>
	<path class="st2" d="M307.5,64.6h6.3c1.4,0,2.5,0.1,3.3,0.3c1,0.3,1.9,0.8,2.6,1.6s1.3,1.7,1.6,2.8s0.6,2.5,0.6,4.1
		c0,1.4-0.2,2.6-0.5,3.7c-0.4,1.2-1,2.3-1.8,3c-0.6,0.6-1.4,1-2.4,1.4c-0.8,0.2-1.8,0.4-3.1,0.4h-6.5V64.6z M311,67.5v11.4h2.6
		c1,0,1.7-0.1,2.1-0.2c0.6-0.1,1-0.4,1.4-0.7s0.7-0.9,0.9-1.7s0.4-1.8,0.4-3.1s-0.1-2.3-0.4-3.1s-0.6-1.3-1-1.7s-1-0.7-1.6-0.8
		c-0.5-0.1-1.4-0.2-2.8-0.2H311z"/>
	<path class="st2" d="M331.5,64.6h6.3c1.4,0,2.5,0.1,3.3,0.3c1,0.3,1.9,0.8,2.6,1.6s1.3,1.7,1.6,2.8s0.6,2.5,0.6,4.1
		c0,1.4-0.2,2.6-0.5,3.7c-0.4,1.2-1,2.3-1.8,3c-0.6,0.6-1.4,1-2.4,1.4c-0.8,0.2-1.8,0.4-3.1,0.4h-6.5V64.6z M335,67.5v11.4h2.6
		c1,0,1.7-0.1,2.1-0.2c0.6-0.1,1-0.4,1.4-0.7s0.7-0.9,0.9-1.7s0.4-1.8,0.4-3.1s-0.1-2.3-0.4-3.1s-0.6-1.3-1-1.7s-1-0.7-1.6-0.8
		c-0.5-0.1-1.4-0.2-2.8-0.2H335z"/>
	<path class="st2" d="M364.3,81.8h-3.8l-1.5-3.9h-6.9l-1.4,3.9h-3.7l6.7-17.2h3.7L364.3,81.8z M358,75l-2.4-6.4l-2.3,6.4H358z"/>
	<path class="st2" d="M368.3,81.8V67.5h-5.1v-2.9h13.7v2.9h-5.1v14.3H368.3z"/>
	<path class="st2" d="M392.8,81.8H389l-1.5-3.9h-6.9l-1.4,3.9h-3.7l6.7-17.2h3.7L392.8,81.8z M386.4,75l-2.4-6.4l-2.3,6.4H386.4z"/>
</g>
<g id="Download" transform="translate(2 2.826)">
	<g id="Group_110" transform="translate(21) rotate(90)">
		<line id="Line_8" class="st3" x1="55.2" y1="-486.5" x2="55.2" y2="-504.5"/>
		<g id="Group_17">
			<path id="Line_10" class="st4" d="M61.7-500.5l-6.5-7l-6.5,7"/>
		</g>
	</g>
</g>
<g>
</g>
<g>
</g>
<g>
</g>
<g>
</g>
<g>
</g>
<g>
</g>
</svg>
